<?xml version="1.0" standalone="no"?>
<!DOCTYPE svg PUBLIC "-//W3C//DTD SVG 20010904//EN"
 "http://www.w3.org/TR/2001/REC-SVG-20010904/DTD/svg10.dtd">
<svg version="1.0" xmlns="http://www.w3.org/2000/svg"
 width="480.000000pt" height="480.000000pt" viewBox="0 0 480.000000 480.000000"
 preserveAspectRatio="xMidYMid meet">
<metadata>
Created by potrace 1.14, written by Peter Selinger 2001-2017
</metadata>
<g transform="translate(0.000000,480.000000) scale(0.100000,-0.100000)"
fill="#000000" stroke="none">
<path d="M0 2400 l0 -2400 2400 0 2400 0 0 2400 0 2400 -2400 0 -2400 0 0
-2400z m2410 2077 c139 -18 186 -30 207 -53 12 -13 28 -24 35 -24 10 0 9 -3
-2 -10 -21 -13 30 -51 99 -72 29 -9 58 -21 64 -27 7 -7 -1 -7 -24 0 -33 11
-125 13 -141 3 -4 -3 -8 -11 -8 -17 0 -8 3 -7 9 2 6 9 14 10 26 4 9 -5 16 -13
16 -16 -3 -24 1 -30 10 -14 5 9 15 17 21 17 9 0 9 -3 0 -12 -13 -13 -16 -29
-4 -27 19 3 32 -2 32 -13 0 -9 -3 -9 -11 -1 -14 14 -39 6 -39 -12 0 -14 36 -9
57 7 8 7 17 5 27 -5 20 -19 0 -39 -32 -32 -12 2 -24 0 -27 -6 -12 -19 -25 -8
-35 31 -6 22 -13 40 -16 40 -3 0 -2 -9 1 -20 4 -12 2 -20 -5 -20 -6 0 -17 -15
-25 -32 l-14 -33 -1 28 c0 17 -4 26 -11 22 -6 -4 -13 3 -16 14 -5 20 -6 20
-19 4 -12 -17 -13 -16 -7 5 3 12 1 22 -6 22 -5 0 -8 6 -5 14 3 8 1 17 -5 21
-6 3 -11 0 -11 -7 0 -7 -7 -2 -16 10 -8 12 -20 19 -26 16 -6 -4 -14 -1 -18 7
-6 9 -10 6 -15 -13 -5 -19 0 -32 19 -51 14 -14 26 -32 26 -39 0 -6 -17 5 -38
25 -34 33 -83 53 -67 27 13 -21 -13 -8 -53 26 -24 20 -42 44 -42 56 0 16 -3
18 -14 9 -10 -9 -17 -6 -30 13 -9 14 -16 30 -16 36 0 5 -5 10 -11 10 -5 0 -8
-4 -5 -8 3 -5 -2 -9 -10 -9 -8 0 -13 6 -10 13 3 8 -2 10 -16 6 -12 -3 -15 -7
-9 -12 14 -8 4 -37 -18 -59 -9 -9 -45 -33 -80 -54 -48 -28 -62 -33 -57 -20 5
16 5 16 -6 2 -7 -9 -26 -18 -42 -21 -29 -6 -29 -6 -9 11 22 18 37 51 23 51 -6
0 -6 9 -1 23 5 12 14 21 21 19 6 -1 8 2 5 9 -5 7 -16 3 -32 -13 -22 -20 -24
-21 -18 -3 6 20 6 20 -6 0 -18 -30 -19 -31 -29 -15 -8 12 -10 10 -11 -10 -1
-14 -1 -28 0 -32 0 -5 -3 -8 -8 -8 -14 0 -29 53 -21 75 11 30 -6 65 -31 65
-18 0 -20 2 -9 16 12 13 10 15 -13 12 -32 -5 -47 -18 -21 -19 10 0 13 -3 7 -6
-26 -10 -12 -22 22 -19 24 2 35 -2 35 -11 0 -8 -4 -11 -10 -8 -15 9 -12 -36 4
-64 12 -21 11 -27 -3 -42 -9 -9 -31 -20 -49 -24 l-34 -7 29 -30 c22 -23 24
-28 8 -22 -18 7 -18 6 -6 -9 15 -19 19 -18 -103 -21 -70 -1 -105 -16 -38 -16
22 0 44 -6 48 -12 4 -7 4 -10 -1 -6 -4 4 -17 2 -28 -3 -16 -9 -17 -13 -6 -20
8 -5 25 -9 39 -10 29 -1 20 -5 -33 -14 -28 -4 -37 -10 -33 -21 5 -13 1 -16
-34 -18 -8 -1 -15 -7 -15 -15 0 -8 -6 -16 -14 -19 -9 -3 -11 0 -6 8 5 9 4 11
-4 6 -6 -4 -9 -11 -7 -15 3 -4 -9 -21 -26 -37 l-31 -29 19 30 18 30 -27 -24
c-29 -26 -36 -18 -12 13 21 27 19 33 -11 39 -34 6 -45 -24 -45 -118 0 -66 -2
-73 -30 -99 -55 -52 -57 -64 -51 -233 2 -31 6 -43 17 -43 12 0 13 -4 5 -19 -5
-11 -10 -22 -10 -25 0 -13 29 -5 56 15 16 11 11 5 -10 -14 -34 -30 -38 -38
-32 -63 9 -36 9 -61 0 -147 -6 -57 -4 -70 10 -80 14 -10 14 -17 4 -44 -9 -25
-9 -35 1 -47 20 -24 29 -20 39 16 4 17 14 34 21 36 10 3 11 0 2 -17 -9 -16 -9
-31 0 -62 l13 -40 15 33 c34 70 41 89 31 83 -16 -10 -12 11 5 25 9 7 13 15 11
18 -3 2 4 12 16 21 11 9 19 24 17 34 -4 15 -8 14 -49 -4 l-45 -20 30 26 c17
14 40 33 53 41 22 16 32 41 10 28 -7 -4 -8 -3 -4 4 4 6 13 9 21 5 8 -3 15 0
15 7 0 6 6 10 12 8 33 -11 69 73 57 130 -4 21 -2 43 6 60 8 15 15 51 16 80 2
29 7 56 12 59 6 4 7 1 2 -7 -5 -8 -4 -11 3 -6 6 4 9 13 6 20 -3 8 0 17 5 21 6
3 9 11 5 16 -3 6 3 13 15 16 11 3 18 9 15 14 -3 5 0 9 7 9 9 0 9 3 0 14 -6 7
-33 16 -60 20 -27 4 -67 13 -88 21 l-38 14 40 1 c22 2 54 6 70 10 29 7 29 8
-10 10 -22 1 -34 4 -27 7 6 2 9 10 6 15 -4 6 -3 8 3 5 6 -4 24 -2 41 3 19 5
34 5 37 -1 4 -5 13 -9 22 -9 10 0 2 13 -22 37 -33 33 -35 38 -19 44 23 8 41 0
24 -11 -9 -5 0 -22 31 -55 36 -39 48 -46 72 -42 28 4 29 3 23 -32 -4 -25 -2
-31 4 -21 5 8 10 27 10 42 0 40 20 45 48 12 14 -16 22 -21 18 -11 -4 14 -1 16
22 12 15 -3 22 -3 15 1 -8 4 -6 11 8 25 16 16 23 17 41 8 19 -10 20 -9 15 10
-6 24 -2 22 52 -24 13 -11 21 -14 16 -6 -6 11 -4 13 8 8 10 -3 17 -2 17 4 0
14 29 43 46 45 7 1 10 -4 7 -12 -3 -7 -9 -12 -15 -11 -17 4 -19 -80 -2 -94 13
-11 14 -9 8 16 -5 20 -3 26 5 24 7 -3 12 -8 12 -12 -1 -4 5 -20 14 -37 10 -20
21 -28 35 -25 11 2 23 -1 26 -7 5 -7 2 -8 -7 -3 -11 6 -11 5 -2 -5 6 -7 45
-15 87 -17 71 -5 78 -3 96 18 11 13 19 19 20 13 0 -8 34 -14 93 -19 113 -8
161 -21 153 -42 -4 -9 1 -17 14 -20 11 -3 20 -12 20 -20 0 -8 5 -11 10 -8 6 4
10 -6 10 -22 0 -21 3 -24 9 -14 8 13 12 13 27 0 9 -8 23 -29 31 -46 7 -18 20
-33 28 -33 8 0 15 -4 15 -10 0 -21 2 -25 15 -40 12 -15 30 -61 26 -69 -2 -2 1
-7 6 -10 9 -7 59 -150 68 -196 3 -16 7 -41 10 -55 13 -68 16 -149 7 -182 -7
-27 -7 -40 1 -46 14 -11 57 2 57 18 0 5 7 10 15 10 11 0 15 11 15 39 0 22 5
43 10 46 6 4 7 11 4 17 -4 7 -2 8 4 4 16 -10 31 24 38 88 4 36 3 60 -5 69 -6
8 -8 17 -4 20 15 16 11 55 -7 60 -26 7 -54 70 -42 94 43 79 64 191 42 218 -6
8 -8 20 -4 26 5 9 2 10 -10 6 -15 -6 -16 -5 -2 14 13 19 13 24 -2 48 -16 25
-16 25 1 12 21 -17 22 -9 2 29 -9 17 -11 30 -5 30 21 0 9 32 -25 67 -20 20
-33 43 -31 50 3 7 2 13 -3 13 -16 0 -18 37 -5 70 16 38 18 52 4 30 -7 -11 -10
-11 -10 -2 0 7 -4 11 -10 7 -5 -3 -16 8 -25 25 -10 19 -20 28 -28 24 -7 -4 -9
-4 -5 1 8 8 -45 120 -62 130 -5 3 -10 10 -10 15 0 30 321 -116 468 -213 458
-301 744 -741 844 -1297 17 -99 18 -480 0 -575 -21 -115 -23 -125 -31 -125 -5
0 -37 27 -73 59 -45 42 -108 83 -214 138 -277 147 -471 222 -709 273 -55 11
-119 25 -142 30 -57 13 -73 12 -73 -4 0 -8 -7 -16 -15 -20 -8 -3 -12 -11 -9
-19 2 -7 -4 -23 -14 -35 l-20 -22 -6 22 c-6 23 -7 23 -18 3 -21 -37 -34 -45
-48 -32 -7 7 -2 -8 10 -31 12 -24 19 -47 16 -50 -3 -3 -6 1 -6 9 0 12 -2 11
-11 -1 -9 -13 -10 -13 -6 2 7 21 -16 52 -34 45 -10 -4 -9 -6 4 -6 12 -1 17 -9
17 -32 0 -18 -4 -28 -10 -24 -6 4 -8 11 -5 16 4 5 1 9 -5 9 -6 0 -8 5 -5 11 4
6 -2 5 -13 -2 -14 -9 -20 -21 -17 -39 2 -20 -1 -26 -18 -27 -12 -1 -25 3 -30
10 -6 9 -10 9 -14 -2 -4 -11 -7 -11 -14 0 -4 7 -11 10 -14 7 -4 -4 3 -15 14
-25 30 -25 28 -63 -3 -63 -14 0 -28 -4 -31 -10 -3 -6 1 -7 9 -4 23 9 20 2 -18
-39 -22 -25 -36 -33 -39 -25 -3 7 -6 3 -6 -9 -1 -16 -7 -23 -22 -23 -14 0 -19
-5 -16 -13 4 -10 -2 -13 -19 -9 -18 3 -26 -1 -33 -19 -7 -18 -10 -19 -10 -6
-1 24 -31 22 -31 -3 0 -13 -5 -18 -15 -14 -8 4 -15 1 -15 -5 0 -7 -10 -9 -25
-7 -14 3 -23 1 -20 -4 3 -5 -3 -9 -12 -9 -35 0 -80 -8 -93 -16 -8 -5 -11 -4
-7 2 4 6 0 13 -8 17 -8 3 -17 0 -21 -5 -3 -6 -18 -9 -33 -6 -14 3 -33 1 -43
-4 -10 -6 -19 -5 -23 1 -8 13 -55 13 -55 0 0 -5 5 -11 10 -11 15 -2 23 -5 55
-19 17 -7 67 -16 112 -19 99 -7 121 -22 81 -55 -16 -12 -28 -25 -28 -30 0 -8
78 0 107 11 9 4 16 -2 20 -16 4 -17 10 -20 27 -15 11 4 23 11 24 15 2 5 10 9
18 9 8 0 17 7 21 16 3 9 41 50 84 91 43 41 86 91 97 111 60 112 71 132 91 153
12 13 24 34 27 46 4 13 9 23 13 23 4 0 14 11 21 25 7 14 17 25 22 25 24 0 -15
-273 -54 -379 -48 -128 -158 -259 -291 -348 -97 -64 -141 -76 -263 -69 -194
11 -264 38 -404 160 -153 131 -182 192 -230 486 -6 36 -11 92 -12 124 -1 33
-9 74 -17 92 l-16 32 -100 -39 c-55 -22 -125 -47 -155 -55 -30 -9 -154 -56
-275 -104 -121 -48 -249 -97 -285 -110 -107 -37 -176 -77 -235 -135 -31 -30
-60 -55 -64 -55 -8 0 -21 52 -43 175 -18 95 -17 476 0 575 104 577 412 1035
900 1333 72 44 109 78 104 97 -1 5 15 31 56 91 9 15 37 43 62 64 25 20 51 47
57 60 7 13 27 28 45 34 23 8 29 14 20 20 -15 9 2 22 75 59 37 19 52 21 140 15
54 -3 104 -10 111 -16 8 -7 12 -5 12 7 0 19 20 22 21 4 0 -7 4 -4 8 7 8 18 17
20 122 19 63 -1 130 -4 149 -7z m285 -77 c3 -5 2 -10 -4 -10 -5 0 -13 5 -16
10 -3 6 -2 10 4 10 5 0 13 -4 16 -10z m-380 -118 c3 -19 4 -37 1 -40 -3 -3 -6
0 -6 7 0 7 -9 26 -20 41 -20 28 -20 29 -1 27 14 -1 21 -11 26 -35z m-26 -22
c-6 -5 -19 -6 -27 -2 -13 4 -12 7 4 12 23 9 41 1 23 -10z m571 -55 c11 -13 10
-14 -4 -9 -9 3 -16 10 -16 15 0 13 6 11 20 -6z m-800 -5 c0 -5 -5 -10 -11 -10
-5 0 -7 5 -4 10 3 6 8 10 11 10 2 0 4 -4 4 -10z m-40 -10 c-8 -5 -22 -10 -30
-10 -13 0 -13 1 0 10 8 5 22 10 30 10 13 0 13 -1 0 -10z m90 -7 c-8 -3 -17 -9
-20 -12 -3 -4 -18 -12 -35 -19 -27 -11 -28 -11 -10 2 11 9 25 20 30 25 6 6 19
10 30 10 14 0 16 -2 5 -6z m561 -16 c-10 -9 -11 -8 -5 6 3 10 9 15 12 12 3 -3
0 -11 -7 -18z m-709 6 c-6 -2 -10 -8 -8 -12 3 -4 -4 -7 -15 -7 -19 0 -19 1 -3
13 10 7 23 13 28 12 6 0 5 -3 -2 -6z m658 -7 c0 -2 -8 -10 -17 -17 -16 -13
-17 -12 -4 4 13 16 21 21 21 13z m267 -16 c3 -10 2 -11 -4 -4 -4 7 -17 14 -28
17 -16 5 -15 5 4 4 14 -1 26 -9 28 -17z m-132 -10 c-3 -5 -12 -10 -18 -10 -7
0 -6 4 3 10 19 12 23 12 15 0z m-755 -30 c-13 -11 -28 -20 -34 -20 -6 0 3 11
19 24 36 29 49 25 15 -4z m850 23 c-14 -2 -49 -11 -79 -18 -30 -8 -50 -10 -45
-5 14 13 75 28 114 28 25 -1 28 -2 10 -5z m-680 -41 c19 -8 42 -14 50 -13 11
1 12 -1 3 -6 -18 -12 73 -61 126 -67 42 -4 69 -16 40 -16 -8 -1 1 -7 20 -16
19 -8 45 -25 59 -39 19 -20 36 -25 76 -26 l51 -1 -55 -10 c-53 -8 -56 -8 -76
18 -12 14 -24 22 -26 18 -3 -5 -3 -3 -2 4 2 7 -9 17 -24 22 -15 6 -35 15 -44
20 -21 12 -39 13 -20 1 10 -6 9 -10 -7 -14 -12 -3 -19 -2 -16 3 6 9 -19 20
-46 20 -11 0 -18 4 -15 9 3 5 -6 12 -19 15 -14 4 -23 11 -20 16 3 5 -8 17 -25
26 -16 10 -30 22 -30 27 0 4 -4 6 -9 3 -5 -3 -29 3 -52 15 -43 20 -43 20 -9
13 19 -3 51 -13 70 -22z m625 8 c-3 -5 -2 -10 4 -10 6 0 7 -8 4 -17 -5 -13 -2
-15 11 -10 10 4 29 4 44 0 24 -6 24 -7 7 -14 -11 -4 -30 -5 -43 -2 -18 4 -25
-1 -36 -28 l-15 -34 4 52 c3 49 10 73 21 73 3 0 2 -4 -1 -10z m210 1 c3 -5 1
-12 -4 -15 -5 -3 -11 1 -15 9 -6 16 9 21 19 6z m-295 -11 c0 -5 -7 -7 -15 -4
-8 4 -15 8 -15 10 0 2 7 4 15 4 8 0 15 -4 15 -10z m-703 -64 c-1 -30 -6 -51
-10 -47 -8 8 1 101 9 101 2 0 2 -24 1 -54z m763 50 c0 -19 -14 -33 -30 -29
-15 4 -16 8 -7 19 11 12 37 19 37 10z m-61 -53 c-21 -26 -63 -63 -67 -58 -4 4
67 75 75 75 3 0 -1 -8 -8 -17z m-967 -10 c-6 -2 -10 -9 -6 -14 3 -5 -2 -9 -12
-9 -13 0 -14 3 -4 15 7 8 18 15 24 14 7 0 6 -2 -2 -6z m-59 -28 c-17 -13 -16
-14 5 -8 30 7 28 -5 -3 -17 -16 -6 -35 -6 -52 1 l-28 10 40 18 c44 20 67 17
38 -4z m114 19 c-3 -3 -12 -4 -19 -1 -8 3 -5 6 6 6 11 1 17 -2 13 -5z m82 -74
c15 -25 15 -25 -5 -7 -11 9 -27 17 -36 17 -8 0 -20 11 -26 25 l-11 24 31 -17
c17 -10 38 -29 47 -42z m416 10 c-10 -11 -21 -17 -24 -14 -3 3 3 12 13 20 28
20 32 17 11 -6z m-565 -10 c0 -5 -12 -10 -27 -9 -25 0 -26 1 -8 9 27 12 35 12
35 0z m311 -21 c7 -13 7 -25 0 -37 -8 -14 -11 -14 -12 -2 -1 8 -1 19 0 24 1 5
-6 17 -16 28 -16 18 -16 18 0 12 10 -3 22 -15 28 -25z m534 21 c14 -6 4 -8
-32 -7 -29 1 -53 5 -53 10 0 9 60 8 85 -3z m270 -90 c18 -1 19 -1 3 -11 -12
-7 -24 -6 -38 1 -25 13 -26 19 -2 15 9 -2 26 -4 37 -5z m-107 -7 c-10 -2 -26
-2 -35 0 -10 3 -2 5 17 5 19 0 27 -2 18 -5z m169 1 c-3 -3 -12 -4 -19 -1 -8 3
-5 6 6 6 11 1 17 -2 13 -5z m-1397 -38 c0 -2 -8 -10 -17 -17 -16 -13 -17 -12
-4 4 13 16 21 21 21 13z m187 -22 c-3 -3 -12 -4 -19 -1 -8 3 -5 6 6 6 11 1 17
-2 13 -5z m-66 -61 c-5 -10 -17 -27 -25 -38 -13 -16 -13 -13 1 17 10 21 22 38
26 38 4 0 3 -8 -2 -17z m-66 -29 c-13 -20 -16 -40 -12 -77 l4 -50 -18 24 c-10
13 -19 38 -19 54 0 24 2 27 11 15 9 -12 10 -11 6 8 -3 12 -1 20 4 16 5 -3 14
7 19 22 6 15 13 24 17 21 3 -4 -2 -18 -12 -33z m115 -308 c-17 -22 -32 -9 -19
16 8 14 14 17 22 9 7 -7 6 -15 -3 -25z m1410 -248 c11 -12 20 -18 20 -12 0 5
5 2 10 -6 5 -8 10 -19 10 -25 0 -5 -5 -3 -10 5 -7 12 -10 8 -10 -15 l0 -29
-16 22 c-15 22 -36 82 -29 82 2 0 13 -10 25 -22z m-125 -758 c-3 -5 -10 -10
-16 -10 -5 0 -9 5 -9 10 0 6 7 10 16 10 8 0 12 -4 9 -10z m-108 -82 c-3 -8 -6
-5 -6 6 -1 11 2 17 5 13 3 -3 4 -12 1 -19z m-300 -270 c-3 -8 -6 -5 -6 6 -1
11 2 17 5 13 3 -3 4 -12 1 -19z m63 18 c0 -3 -4 -8 -10 -11 -5 -3 -10 -1 -10
4 0 6 5 11 10 11 6 0 10 -2 10 -4z"/>
<path d="M2300 4434 c-24 -13 -24 -14 21 -14 33 0 49 5 53 15 7 18 -15 20 -33
3 -11 -10 -13 -10 -7 0 9 15 -2 14 -34 -4z"/>
<path d="M2280 4400 c0 -5 5 -10 11 -10 5 0 7 5 4 10 -3 6 -8 10 -11 10 -2 0
-4 -4 -4 -10z"/>
<path d="M2522 4381 l-2 -25 27 25 c16 13 30 25 32 26 2 1 -9 1 -26 0 -23 -2
-29 -7 -31 -26z"/>
<path d="M2165 4389 c-4 -6 -5 -12 -2 -15 2 -3 7 2 10 11 7 17 1 20 -8 4z"/>
<path d="M2066 4361 c-10 -18 -16 -40 -14 -49 2 -9 -6 -25 -17 -35 -20 -18
-20 -18 2 -8 28 14 36 14 28 -1 -4 -7 3 -2 14 12 12 14 26 31 31 38 6 6 16 12
22 12 6 0 5 -6 -3 -17 -12 -14 -12 -16 1 -11 18 6 21 69 3 75 -7 3 -13 -3 -13
-12 0 -14 -4 -13 -19 6 l-18 23 -17 -33z"/>
<path d="M2305 4370 c-3 -6 1 -7 9 -4 18 7 21 14 7 14 -6 0 -13 -4 -16 -10z"/>
<path d="M2435 4370 c3 -5 8 -10 11 -10 2 0 4 5 4 10 0 6 -5 10 -11 10 -5 0
-7 -4 -4 -10z"/>
<path d="M1790 4366 c0 -9 40 -13 46 -5 3 5 -6 9 -20 9 -14 0 -26 -2 -26 -4z"/>
<path d="M2175 4359 c-4 -6 -5 -12 -2 -15 2 -3 7 2 10 11 7 17 1 20 -8 4z"/>
<path d="M2555 4360 c3 -5 17 -10 31 -10 14 0 22 4 19 10 -3 6 -17 10 -31 10
-14 0 -22 -4 -19 -10z"/>
<path d="M2340 4348 c0 -9 5 -20 11 -23 17 -11 20 0 4 21 -13 17 -14 17 -15 2z"/>
<path d="M1852 4330 c0 -14 2 -19 5 -12 2 6 2 18 0 25 -3 6 -5 1 -5 -13z"/>
<path d="M2572 4323 c-7 -2 -17 -13 -22 -24 -9 -16 -8 -19 12 -15 13 1 23 9
23 16 0 7 10 14 22 15 13 1 26 5 30 8 7 8 -46 8 -65 0z"/>
<path d="M1763 4293 c9 -2 25 -2 35 0 9 3 1 5 -18 5 -19 0 -27 -2 -17 -5z"/>
<path d="M2599 4283 c-13 -17 -13 -17 6 -3 11 8 22 16 24 17 2 2 0 3 -6 3 -6
0 -17 -8 -24 -17z"/>
<path d="M1730 4209 c-24 -7 -24 -7 -2 -10 54 -6 81 -5 76 3 -4 6 -15 8 -25 5
-10 -3 -19 -2 -21 2 -2 4 -14 4 -28 0z"/>
<path d="M1625 4121 c-3 -5 0 -13 6 -17 7 -4 9 -3 5 4 -3 5 0 13 6 15 9 4 10
6 1 6 -6 1 -14 -3 -18 -8z"/>
<path d="M1557 4113 c-7 -16 -2 -53 8 -53 6 0 10 6 10 13 1 6 6 11 13 9 9 -1
9 3 0 18 -13 21 -24 25 -31 13z"/>
<path d="M1632 4073 c-19 -9 -36 -22 -39 -30 -3 -7 -9 -11 -13 -8 -5 3 -7 -2
-6 -10 2 -16 15 -21 17 -7 1 13 42 52 55 52 7 0 16 5 19 10 8 13 6 13 -33 -7z"/>
<path d="M1765 3850 c3 -5 8 -10 11 -10 2 0 4 5 4 10 0 6 -5 10 -11 10 -5 0
-7 -4 -4 -10z"/>
<path d="M1944 3838 c3 -15 26 -23 26 -8 0 6 -4 9 -9 6 -5 -4 -12 -1 -14 4 -3
6 -4 5 -3 -2z"/>
<path d="M2520 3155 c-32 -10 -49 -22 -57 -42 -15 -31 -18 -76 -5 -55 5 7 15
10 24 7 8 -3 34 5 58 19 24 14 47 23 52 20 4 -3 8 -1 8 5 0 5 -6 11 -12 14 -7
2 -10 8 -6 12 5 5 16 2 25 -7 12 -10 45 -15 103 -17 47 -1 102 -6 122 -11 28
-6 38 -4 42 6 3 8 13 14 21 14 9 0 13 5 9 11 -3 6 -17 8 -30 5 -13 -4 -41 1
-61 10 -51 22 -232 28 -293 9z m127 -21 c-2 -2 -12 -1 -22 3 -18 6 -18 7 1 13
17 7 33 -5 21 -16z"/>
<path d="M2001 3125 c-61 -14 -100 -32 -131 -64 -13 -13 -12 -14 10 -7 14 5
39 10 57 13 20 3 30 10 27 18 -9 21 23 25 42 4 24 -27 90 -27 99 1 3 11 12 20
19 20 16 0 38 -24 30 -32 -3 -3 9 -8 26 -10 35 -5 35 -5 14 27 -29 45 -84 53
-193 30z m54 -15 c-3 -5 -13 -10 -21 -10 -8 0 -12 5 -9 10 3 6 13 10 21 10 8
0 12 -4 9 -10z"/>
<path d="M1492 3070 c0 -14 2 -19 5 -12 2 6 2 18 0 25 -3 6 -5 1 -5 -13z"/>
<path d="M2571 2754 c0 -11 3 -14 6 -6 3 7 2 16 -1 19 -3 4 -6 -2 -5 -13z"/>
<path d="M2505 2675 c-5 -2 -22 -6 -37 -9 -15 -3 -30 -15 -33 -26 -3 -11 -14
-20 -23 -20 -10 0 -23 -9 -29 -19 -10 -17 -10 -20 5 -19 9 1 32 -2 51 -6 24
-6 31 -5 27 3 -4 6 -2 11 4 11 12 0 80 70 80 83 0 7 -26 8 -45 2z"/>
<path d="M2250 2652 c0 -4 12 -9 28 -10 21 -1 23 0 12 8 -18 12 -40 13 -40 2z"/>
<path d="M2635 2500 c-4 -6 -17 -10 -28 -9 -57 4 -87 -2 -87 -16 0 -8 -8 -15
-17 -14 -11 0 -13 3 -5 6 20 8 14 22 -9 16 -11 -3 -18 -11 -15 -19 3 -9 -6
-15 -30 -20 -19 -3 -36 -10 -39 -14 -2 -4 15 -3 38 2 127 25 195 40 222 47 27
7 28 9 10 16 -11 5 -23 10 -27 12 -4 2 -10 -2 -13 -7z"/>
<path d="M2877 2457 c-3 -8 1 -14 8 -14 7 0 11 6 8 14 -3 7 -6 13 -8 13 -2 0
-5 -6 -8 -13z"/>
<path d="M2977 2453 c-11 -11 -8 -20 7 -20 8 0 12 6 9 14 -6 15 -7 15 -16 6z"/>
<path d="M2807 2293 c-4 -3 -7 -11 -7 -17 0 -6 5 -5 12 2 6 6 9 14 7 17 -3 3
-9 2 -12 -2z"/>
<path d="M1945 2120 c10 -11 20 -18 23 -15 7 6 -18 35 -31 35 -5 0 -2 -9 8
-20z"/>
<path d="M2100 2010 c0 -5 5 -10 10 -10 6 0 10 5 10 10 0 6 -4 10 -10 10 -5 0
-10 -4 -10 -10z"/>
</g>
</svg>
